<?xml version="1.0" encoding="UTF-8"?>
<!DOCTYPE svg PUBLIC "-//W3C//DTD SVG 1.1//EN" "http://www.w3.org/Graphics/SVG/1.1/DTD/svg11.dtd">
<!-- Creator: CorelDRAW X7 -->
<svg xmlns="http://www.w3.org/2000/svg" xml:space="preserve" width="83.6194mm" height="20.6589mm" version="1.1" style="shape-rendering:geometricPrecision; text-rendering:geometricPrecision; image-rendering:optimizeQuality; fill-rule:evenodd; clip-rule:evenodd"
viewBox="0 0 4729 1168"
 xmlns:xlink="http://www.w3.org/1999/xlink">
 <defs>
  <style type="text/css">
   <![CDATA[
    .fil0 {fill:#A05584}
    .fil1 {fill:#429BA1}
   ]]>
  </style>
 </defs>
 <g id="Layer_x0020_1">
  <metadata id="CorelCorpID_0Corel-Layer"/>
  <path class="fil0" d="M661 479c0,0 -1,0 -1,0l-102 194c-9,18 -9,37 1,54 10,18 30,28 50,28l103 0c20,0 40,-10 50,-28 10,-16 10,-36 1,-53l-102 -195zm-338 688l0 0c-21,0 -39,-18 -38,-39l2 -276c0,-6 -3,-10 -4,-12 -2,-1 -5,-4 -11,-4l-111 0c-57,0 -110,-28 -139,-77 -30,-51 -29,-112 2,-163 105,-168 247,-396 330,-525 20,-32 56,-50 94,-49 39,2 72,23 90,57l122 232c1,1 1,1 1,0l117 -221c18,-34 53,-55 92,-54 38,0 73,22 90,56l348 693c35,70 22,155 -39,213 -32,31 -76,46 -121,46l-1 0c-69,0 -135,0 -194,0 -91,-1 -178,-1 -229,0 -10,0 -17,7 -17,16 0,22 0,49 0,70 0,21 -17,38 -38,38 -1,0 -1,0 -1,0 -22,0 -39,-17 -39,-38 0,-50 1,-120 1,-130 1,-39 40,-32 57,-33 14,-1 33,-1 60,-1 50,-1 123,0 207,0 58,1 124,1 194,1l0 0c25,0 50,-9 68,-26 35,-33 43,-81 23,-121l-348 -693c-6,-12 -18,-14 -22,-14 -5,0 -16,1 -22,13l-142 269c0,0 0,1 0,1l125 238c23,43 23,95 -3,135 -24,40 -66,63 -113,63l-103 0c-47,0 -92,-23 -117,-63 -25,-40 -27,-90 -5,-132l128 -241c0,0 0,-1 0,-1l-147 -280c-7,-13 -20,-15 -25,-15 -5,-1 -18,0 -26,13 -82,128 -223,354 -328,522 -15,25 -18,55 -4,81 14,26 40,43 70,43l113 0c22,0 45,7 62,22 21,18 33,44 32,72l-2 276c0,21 -18,38 -39,38z"/>
  <path class="fil1" d="M1647 608c0,75 58,134 129,134 56,0 91,-25 91,-25l64 130c0,0 -62,49 -183,49 -157,0 -301,-127 -301,-286 0,-160 143,-290 301,-290 121,0 183,51 183,51l-64 129c0,0 -35,-26 -91,-26 -71,0 -129,60 -129,134z"/>
  <path class="fil1" d="M2269 736c73,0 126,-53 126,-127 0,-76 -56,-129 -126,-129 -71,0 -127,54 -127,129 0,74 51,127 127,127zm1 -416c181,0 325,119 325,289 0,167 -137,287 -325,287 -196,0 -327,-120 -327,-287 0,-170 144,-289 327,-289z"/>
  <path class="fil1" d="M2945 736c73,0 126,-53 126,-127 0,-76 -56,-129 -126,-129 -71,0 -127,54 -127,129 0,74 51,127 127,127zm1 -416c180,0 324,119 324,289 0,167 -136,287 -324,287 -196,0 -328,-120 -328,-287 0,-170 144,-289 328,-289z"/>
  <path class="fil1" d="M3641 480c-73,0 -126,54 -126,128 0,75 56,128 126,128 71,0 127,-53 127,-128 0,-75 -51,-128 -127,-128zm56 416c-73,0 -134,-24 -178,-68l0 328 -188 0 0 -820 186 0 0 62 2 0c40,-45 104,-78 178,-78 159,0 270,129 270,288 0,159 -111,288 -270,288z"/>
  <path class="fil1" d="M4444 363l-62 123c0,0 -63,-34 -121,-34 -41,0 -58,7 -58,33 0,28 38,37 85,52 72,22 165,62 165,174 0,160 -146,185 -257,185 -132,0 -210,-73 -210,-73l76 -128c0,0 74,62 135,62 26,0 58,-3 58,-39 0,-39 -59,-42 -121,-74 -55,-29 -110,-67 -110,-149 0,-111 94,-175 237,-175 105,0 183,43 183,43z"/>
  <path class="fil1" d="M4521 880l188 0 0 -544 -188 0 0 544zm208 -769c0,62 -50,112 -111,112 -62,0 -112,-50 -112,-112 0,-61 50,-111 112,-111 61,0 111,50 111,111z"/>
 </g>
</svg>
